<svg xmlns="http://www.w3.org/2000/svg" xmlns:svg="http://www.w3.org/2000/svg" id="svg2894" width="400" height="400" version="1.1"><metadata id="metadata2899"/><g id="layer1" transform="translate(0,-652.36218)"><circle id="path9960-5" cx="193.143" cy="847.505" r="113.137" fill="#1c71d8" fill-opacity="1" fill-rule="evenodd" stroke="none" stroke-width="8" display="inline" enable-background="accumulate" overflow="visible" visibility="visible" style="marker:none"/><path id="path9962-9" fill="#f8e45c" fill-opacity="1" fill-rule="evenodd" stroke="none" d="m 154.8125,801 c -7.4884,7.91576 -18.03264,12.20164 -32.21875,17.40625 -3.7518,4.98592 3.75915,11.08549 13.78125,11.53125 7.5051,0.46149 15.6011,-3.77997 21.6875,-6.53125 2.24432,-1.48364 4.59112,-3.05799 7.15625,-4.0625 -0.66656,-0.46744 -1.24868,-0.98801 -1.78125,-1.625 -1.43527,-1.71668 -2.29974,-3.99024 -3.34375,-7.625 -1.00037,-3.48285 -1.81358,-5.51551 -2.625,-6.75 -0.7345,-1.11746 -1.45421,-1.69621 -2.65625,-2.34375 z m 8.4375,9.1875 c 0.75017,2.46277 1.41056,4.05326 2.125,5.09375 -0.49496,-1.56318 -1.2911,-3.35466 -2.125,-5.09375 z"/><path id="path9964-8" fill="#fff" fill-rule="evenodd" stroke="none" d="m 199.375,769.375 c -36.08623,0 -42.18367,28.15629 -42.4375,29.40625 1.16384,0.72057 2.17923,1.60998 3.03125,2.90625 1.11687,1.69922 1.96899,3.973 3,7.5625 0.99233,3.45483 1.80531,5.29434 2.71875,6.46875 1.24869,1.60544 3.26452,2.22017 4.75,3 1.58402,0.67352 3.46313,1.22112 5.6875,1.65625 0,0 17,1.84287 17,14 0,10.83946 -18.6875,41.25 -18.6875,41.25 -0.9909,1.70636 -1.5625,3.6972 -1.5625,5.8125 0,6.39291 5.20084,11.5625 11.59375,11.5625 6.39291,0 11.5625,-5.16959 11.5625,-11.5625 0,-2.53786 -0.83379,-4.8734 -2.21875,-6.78125 -3.53757,-16.99723 42.8125,-36.5384 42.8125,-62.78125 0,0 -0.8056,-42.5 -37.25,-42.5 z"/><path id="path9966-4" fill="#1c71d8" fill-opacity="1" fill-rule="evenodd" stroke="none" d="m 166.25979,807.50371 c 0,0 15.5435,-11.20195 26.5165,-14.14214 11.3119,-3.03102 23.6881,0.70711 23.6881,0.70711 0,0 -11.9184,-11.54423 -23.3346,-8.48528 -11.7372,3.14499 -26.87,21.92031 -26.87,21.92031 z"/><path id="path14" fill="#fff" fill-opacity="1" fill-rule="evenodd" stroke="#3465a4" stroke-dashoffset="0" stroke-linecap="round" stroke-linejoin="miter" stroke-miterlimit="4" stroke-opacity="1" stroke-width="2" d="m 193.86792,786.82615 c 0,2.24366 -1.81884,4.0625 -4.0625,4.0625 -2.24366,0 -4.0625,-1.81884 -4.0625,-4.0625 0,-2.24365 1.81884,-4.0625 4.0625,-4.0625 2.24366,0 4.0625,1.81885 4.0625,4.0625 z" display="inline" enable-background="accumulate" overflow="visible" visibility="visible" style="marker:none"/><circle id="path9972-0" cx="185.705" cy="916.398" r="16.525" fill="#fff" fill-opacity="1" fill-rule="evenodd" stroke="none" stroke-width="8.697" display="inline" enable-background="accumulate" overflow="visible" visibility="visible" style="marker:none"/><path id="path9968-8-5" fill="#1c71d8" fill-opacity="1" fill-rule="evenodd" stroke="none" stroke-width="2" d="m 189.80543,781.77647 c -2.7841,0 -5.0625,2.2784 -5.0625,5.0625 0,2.7841 2.2784,5.0625 5.0625,5.0625 2.7841,0 5.0625,-2.2784 5.0625,-5.0625 0,-2.7841 -2.2784,-5.0625 -5.0625,-5.0625 z m 0,2 c 1.70322,0 3.0625,1.35928 3.0625,3.0625 0,1.70322 -1.35928,3.0625 -3.0625,3.0625 -1.70322,0 -3.0625,-1.35928 -3.0625,-3.0625 0,-1.70322 1.35928,-3.0625 3.0625,-3.0625 z" color="#000" direction="ltr" display="inline" enable-background="accumulate" font-family="Bitstream Charter" font-size="medium" font-stretch="normal" font-style="normal" font-variant="normal" font-weight="normal" letter-spacing="normal" overflow="visible" text-anchor="start" text-decoration="none" visibility="visible" word-spacing="normal" writing-mode="lr-tb" style="text-indent:0;text-align:start;line-height:normal;text-transform:none;block-progression:tb;marker:none;-inkscape-font-specification:Bitstream Charter"/></g></svg>